# xmcd
#
# Track frame offsets: 
#        150
#        16023
#        42781
#        60182
#        72805
#        84097
#        101183
#        118474
#        137386
#        153233
#        182230
#        202966
#
# Disc length: 3031 seconds
#
# Revision: 0
# Processed by: cddbd v1.5.2PL0 Copyright (c) Steve Scherf et al.
# Submitted via: ExactAudioCopy v1.3
#
DISCID=900bd50c
DTITLE=Velma Powell and Bluedays - Step Into The Blues
DYEAR=2015
DGENRE=Blues
TTITLE0=Real
TTITLE1=Richman's Blues
TTITLE2=Blues Doctor
TTITLE3=Wake Up
TTITLE4=Sugar
TTITLE5=Blues In Their Genes
TTITLE6=Black Coffee
TTITLE7=Your Soul
TTITLE8=Lawyer
TTITLE9=We Bring The Blues To You
TTITLE10=Bluedays
TTITLE11=100 Ways
EXTD=
EXTT0=
EXTT1=
EXTT2=
EXTT3=
EXTT4=
EXTT5=
EXTT6=
EXTT7=
EXTT8=
EXTT9=
EXTT10=
EXTT11=
PLAYORDER=
